HIERARCHY
ROOT Hips
{
	OFFSET 0.000000 0.000000 0.000000
	CHANNELS 6 Xposition Yposition Zposition Zrotation Yrotation Xrotation 
	JOINT LHipJoint
	{
		OFFSET 0.000000 0.000000 0.000000
		CHANNELS 3 Zrotation Yrotation Xrotation
		JOINT LeftUpLeg
		{
			OFFSET 1.363060 -1.794630 0.839290
			CHANNELS 3 Zrotation Yrotation Xrotation
			JOINT LeftLeg
			{
				OFFSET 2.448110 -6.726130 0.000000
				CHANNELS 3 Zrotation Yrotation Xrotation
				JOINT LeftFoot
				{
					OFFSET 2.562200 -7.039590 0.000000
					CHANNELS 3 Zrotation Yrotation Xrotation
					JOINT LeftToeBase
					{
						OFFSET 0.157640 -0.433110 2.322550
						CHANNELS 3 Zrotation Yrotation Xrotation
						End Site
						{
							OFFSET 0.000000 0.000000 0.000000
						}
					}
				}
			}
		}
	}
	JOINT RHipJoint
	{
		OFFSET 0.000000 0.000000 0.000000
		CHANNELS 3 Zrotation Yrotation Xrotation
		JOINT RightUpLeg
		{
			OFFSET -1.305520 -1.794630 0.839290
			CHANNELS 3 Zrotation Yrotation Xrotation
			JOINT RightLeg
			{
				OFFSET -2.542530 -6.985550 0.000000
				CHANNELS 3 Zrotation Yrotation Xrotation
				JOINT RightFoot
				{
					OFFSET -2.568260 -7.056230 0.000000
					CHANNELS 3 Zrotation Yrotation Xrotation
					JOINT RightToeBase
					{
						OFFSET -0.164730 -0.452590 2.363150
						CHANNELS 3 Zrotation Yrotation Xrotation
						End Site
						{
							OFFSET 0.000000 0.000000 0.000000
						}
					}
				}
			}
		}
	}
}
MOTION
Frames: 14
Frame Time: 0.008333
-17.385628 15.859068 -2.080115 115.596333 89.570246 159.396704 -13.496490 2.619621 -1.179402 -1.277530 6.723705 -10.031377 -0.420206 0.243931 11.316072 1.194411 2.841199 28.575787 1.042400 0.000000 -71.218900 7.413214 -1.029007 5.807574 6.095954 10.205673 -82.357699 3.127867 -3.327028 35.214855 -0.055960 1.272770 -3.418265 -0.446800 0.000000 -37.867000
-17.155613 15.806431 -2.036033 103.754461 88.627332 147.525700 -13.972971 2.526998 -1.072923 -1.310152 6.424881 -10.361158 -0.266319 0.254679 12.872466 1.260181 2.940509 28.923465 1.071300 0.000000 -67.483000 7.058153 -1.152453 5.481518 5.947708 9.676937 -82.896310 2.829800 -3.686208 38.516153 -0.080945 1.466954 -4.563384 -0.357500 -0.000001 -34.864500
-16.930081 15.759764 -1.994944 79.299370 87.689831 123.051343 -14.850807 2.523960 -0.942245 -1.529149 6.322827 -10.858501 -0.176809 0.322407 14.582133 1.382248 3.282284 29.001393 1.196500 0.000000 -63.593500 6.401903 -1.050979 5.002495 5.934124 9.310070 -83.208381 2.541793 -3.895352 41.803437 -0.089677 1.737344 -5.905250 -0.269600 -0.000001 -32.559399
-16.708911 15.720340 -1.957066 52.341654 87.232401 96.127412 -15.350023 2.712843 -0.855556 -1.614561 6.432365 -11.524162 -0.234361 0.475068 16.442526 1.552837 3.892477 28.795726 1.439200 0.000000 -59.814201 6.057666 -0.419118 4.431637 6.280096 9.348097 -83.173649 2.295509 -3.998520 44.808601 -0.112803 1.991464 -7.382789 -0.189800 0.000000 -31.081800
-16.492106 15.689055 -1.922284 40.601996 87.168404 84.355218 -15.403396 2.769530 -0.866574 -1.436705 6.619067 -12.255146 -0.263491 0.587418 18.562942 1.677967 4.689675 28.367366 1.806400 -0.000000 -56.320400 6.025722 0.011633 3.980750 6.835349 9.286409 -82.965657 2.131290 -4.154828 47.390256 -0.175972 2.164252 -9.032934 -0.120100 -0.000000 -30.455200
-16.279109 15.666352 -1.890145 39.810696 87.250502 83.452532 -15.470165 2.647262 -0.937238 -1.185194 6.863524 -13.045492 -0.219356 0.651623 20.900050 1.771938 5.685230 27.727207 2.286900 0.000000 -53.099400 5.946137 0.089232 3.617073 7.451191 9.052316 -82.609076 2.035824 -4.323235 49.556481 -0.256859 2.307779 -10.770808 -0.060000 0.000000 -30.615400
-16.069610 15.652247 -1.859939 43.516356 87.399322 86.998968 -15.569159 2.419129 -1.047889 -0.906553 7.151658 -13.894357 -0.137635 0.696152 23.380755 1.862047 6.896561 26.883799 2.865400 -0.000000 -50.281900 5.819305 -0.024429 3.297263 8.128597 8.766721 -82.055712 1.998010 -4.470450 51.290597 -0.344114 2.444187 -12.507352 -0.008300 -0.000000 -31.419400
-15.863106 15.646457 -1.830633 48.573199 87.602372 91.866723 -15.644638 2.134130 -1.188786 -0.611089 7.456680 -14.793119 -0.044548 0.738333 25.957097 1.959924 8.298236 25.841090 3.508900 -0.000000 -47.895900 5.697255 -0.222519 3.006592 8.860663 8.495221 -81.286085 2.009477 -4.587172 52.589206 -0.432207 2.579832 -14.175910 0.035600 0.000000 -32.663500
-15.658878 15.648318 -1.801204 53.672945 87.848082 96.758787 -15.672011 1.823495 -1.350780 -0.318729 7.747925 -15.736059 0.044713 0.789224 28.595550 2.069279 9.836336 24.597903 4.170600 -0.000000 -45.870300 5.603718 -0.446338 2.739534 9.616252 8.264045 -80.307025 2.059888 -4.668862 53.475199 -0.516991 2.716361 -15.726430 0.071700 -0.000000 -34.104400
-15.456236 15.657032 -1.770564 58.377494 88.118483 101.246837 -15.647147 1.508035 -1.523612 -0.056594 7.992270 -16.723828 0.123263 0.855198 31.271346 2.189630 11.443411 23.158216 4.797800 0.000000 -44.150600 5.545429 -0.664515 2.495967 10.352173 8.079033 -79.145939 2.137493 -4.713852 53.990609 -0.595888 2.849528 -17.123786 0.100000 -0.000000 -35.498100
-15.254887 15.671730 -1.737771 62.639709 88.393690 105.293147 -15.572504 1.202425 -1.696160 0.147607 8.158222 -17.765070 0.189759 0.938836 33.968504 2.317549 13.045865 21.527809 5.337900 -0.000000 -42.666700 5.524044 -0.860687 2.280169 11.023819 7.938757 -77.843624 2.230160 -4.723275 54.189077 -0.668205 2.968506 -18.347540 0.121400 -0.000000 -36.644100
-15.053844 15.691501 -1.702190 66.553684 88.657652 109.007908 -15.450764 0.915968 -1.859306 0.271432 8.219798 -18.879653 0.245553 1.040294 36.678064 2.447938 14.572339 19.712600 5.743100 0.000000 -41.316001 5.540740 -1.025785 2.097303 11.595103 7.843554 -76.451693 2.326883 -4.700534 54.128118 -0.735284 3.056720 -19.391649 0.138700 0.000000 -37.414100
-14.852993 15.715596 -1.663414 70.272077 88.897436 112.556770 -15.284669 0.655684 -2.003204 0.297501 8.156611 -20.089586 0.293930 1.157361 39.394485 2.575542 15.964376 17.724000 5.978300 -0.000000 -40.008500 5.596486 -1.155524 1.954108 12.039604 7.795139 -75.021024 2.418236 -4.650043 53.864983 -0.799958 3.096062 -20.264492 0.155700 -0.000001 -37.758700
-14.651849 15.743372 -1.621457 73.953053 89.107643 116.114934 -15.075927 0.424475 -2.120900 0.218340 7.955590 -21.418889 0.338299 1.286570 42.110029 2.696062 17.181603 15.580579 6.025300 0.000000 -38.683500 5.691943 -1.247883 1.854834 12.345497 7.798493 -73.599615 2.497738 -4.576497 53.449555 -0.866364 3.069031 -20.987366 0.177200 0.000000 -37.694200
